<svg xmlns="http://www.w3.org/2000/svg" viewBox="0 0 96 56" width="96" height="56">
  <defs>
    <linearGradient id="body" x1="0" y1="0" x2="0" y2="1">
      <stop offset="0" stop-color="#ffffff"/>
      <stop offset="0.5" stop-color="#dde4f0"/>
      <stop offset="1" stop-color="#9fabc2"/>
    </linearGradient>
  </defs>
  <!-- big knobby wheels -->
  <rect x="10" y="0" width="22" height="13" rx="5" fill="#14161c"/>
  <rect x="10" y="43" width="22" height="13" rx="5" fill="#14161c"/>
  <rect x="58" y="0" width="22" height="13" rx="5" fill="#14161c"/>
  <rect x="58" y="43" width="22" height="13" rx="5" fill="#14161c"/>
  <rect x="13" y="2" width="3" height="9" fill="#2e3340"/>
  <rect x="20" y="2" width="3" height="9" fill="#2e3340"/>
  <rect x="27" y="2" width="3" height="9" fill="#2e3340"/>
  <rect x="13" y="45" width="3" height="9" fill="#2e3340"/>
  <rect x="20" y="45" width="3" height="9" fill="#2e3340"/>
  <rect x="27" y="45" width="3" height="9" fill="#2e3340"/>
  <rect x="61" y="2" width="3" height="9" fill="#2e3340"/>
  <rect x="68" y="2" width="3" height="9" fill="#2e3340"/>
  <rect x="75" y="2" width="3" height="9" fill="#2e3340"/>
  <rect x="61" y="45" width="3" height="9" fill="#2e3340"/>
  <rect x="68" y="45" width="3" height="9" fill="#2e3340"/>
  <rect x="75" y="45" width="3" height="9" fill="#2e3340"/>
  <!-- neon rim glow -->
  <path d="M14 28 L18 14 Q20 10 28 10 L64 12 Q78 14 86 24 L87 28 L86 32 Q78 42 64 44 L28 46 Q20 46 18 42 Z"
        fill="none" stroke="#ffffff" stroke-opacity="0.55" stroke-width="4" stroke-linejoin="round"/>
  <!-- chunky body -->
  <path d="M14 28 L18 14 Q20 10 28 10 L64 12 Q78 14 86 24 L87 28 L86 32 Q78 42 64 44 L28 46 Q20 46 18 42 Z"
        fill="url(#body)"/>
  <!-- roll cage bars -->
  <rect x="34" y="12" width="4" height="32" rx="2" fill="#3c4658"/>
  <rect x="52" y="13" width="4" height="30" rx="2" fill="#3c4658"/>
  <!-- open cockpit -->
  <path d="M38 17 L52 18 Q56 23 56 28 Q56 33 52 38 L38 39 Q35 33 35 28 Q35 23 38 17 Z" fill="#0c1626"/>
  <circle cx="47" cy="28" r="4" fill="#234064"/>
  <!-- snorkel + lights -->
  <rect x="60" y="24" width="18" height="8" rx="3" fill="#7c8aa4"/>
  <circle cx="82" cy="21" r="2.6" fill="#fffbe0"/>
  <circle cx="82" cy="35" r="2.6" fill="#fffbe0"/>
</svg>
